<svg xmlns="http://www.w3.org/2000/svg" viewBox="80 32 416 588">
  <path d="M99 48H221Q224 48 224 51V201Q224 204 227 204H349Q352 204 352 201V51Q352 48 355 48H413Q416 48 418.12 50.12L477.88 109.88Q480 112 480 115V409Q480 412 477.6 410.2L354.4 317.8Q352 316 349 316H227Q224 316 224 319V473Q224 476 221 476H163Q160 476 158.01 473.76L97.99 406.24Q96 404 96 401V51Q96 48 99 48Z" fill="#11191e"/>
  <path d="M352 350.5Q352 348 354 349.5L478 442.5Q480 444 480 446.5V505.5Q480 508 478 506.5L354 413.5Q352 412 352 409.5V350.5Z" fill="#11191e"/>
  <path d="M352 446.5Q352 444 354 445.5L478 538.5Q480 540 480 542.5V601.5Q480 604 478 602.5L354 509.5Q352 508 352 505.5V446.5Z" fill="#11191e"/>
</svg>
